<?xml version="1.0" encoding="utf-8"?>
<!-- Generator: Adobe Illustrator 24.1.3, SVG Export Plug-In . SVG Version: 6.00 Build 0)  -->
<svg version="1.1" id="Layer_1" xmlns="http://www.w3.org/2000/svg" xmlns:xlink="http://www.w3.org/1999/xlink" x="0px" y="0px"
	 viewBox="0 0 1024 1024" style="enable-background:new 0 0 1024 1024;" xml:space="preserve">
<style type="text/css">
	.st0{fill:#FFFFFF;stroke:url(#SVGID_1_);stroke-miterlimit:10;}
	.st1{fill:#FFFFFF;stroke:#000000;stroke-width:30;stroke-miterlimit:10;}
	.st2{fill:none;stroke:#000000;stroke-width:30;stroke-miterlimit:10;}
	.st3{fill:#FF7F23;stroke:#000000;stroke-width:30;stroke-miterlimit:10;}
	.st4{fill:#C4C4C4;stroke:#000000;stroke-width:5;stroke-miterlimit:10;}
</style>
<linearGradient id="SVGID_1_" gradientUnits="userSpaceOnUse" x1="-21.0735" y1="514.4117" x2="1032.1323" y2="514.4117">
	<stop  offset="0" style="stop-color:#2D82FF"/>
	<stop  offset="1" style="stop-color:#2D82FF"/>
</linearGradient>
<rect x="-20.57" y="-11.69" class="st0" width="1052.21" height="1052.21"/>
<path class="st1" d="M131.28,772.07c-6.57-160.62,12.12-313.9,102.94-407.73c72.9-75.31,181.42-124.08,274.09-124.08
	c98.36,0,212.67,52.14,285.65,135.97c81.43,93.54,98.5,242.73,90.98,395.83"/>
<line class="st2" x1="210.45" y1="392.38" x2="807.8" y2="393.5"/>
<line class="st2" x1="136.93" y1="597.91" x2="371.04" y2="598.29"/>
<line class="st2" x1="116.14" y1="763.46" x2="385.37" y2="761.73"/>
<line class="st2" x1="681.35" y1="763.27" x2="900.14" y2="763.63"/>
<line class="st2" x1="635.8" y1="598.73" x2="880.32" y2="599.12"/>
<path class="st2" d="M429.32,396.85c0-81.53,0-147.51,0-147.51"/>
<path class="st1" d="M685.32,787.28V468.82c0-19.73-17.51-35.72-39.11-35.72H372.82c-21.6,0-39.11,15.99-39.11,35.72v318.47
	c0,0.97,0.05,1.93,0.14,2.89c117.05,0,234.11,0,351.16,1.52C685.2,790.24,685.32,788.78,685.32,787.28z"/>
<path class="st3" d="M617.99,785.75V524.59c0-18.7-15.3-33.85-34.17-33.85H435.2c-18.87,0-34.17,15.16-34.17,33.85v261.16
	c0,0.92,0.05,1.84,0.12,2.74c72.21,0.03,144.43,0.17,216.64,0.93C617.92,788.21,617.99,786.99,617.99,785.75z"/>
<rect x="576.49" y="619.94" class="st4" width="17.16" height="55.53"/>
<path class="st2" d="M265.76,598.92c0-113.86,0-205.99,0-205.99"/>
<path class="st2" d="M751.94,598.1c0-111.24,0-201.25,0-201.25"/>
<line class="st2" x1="319.04" y1="792.64" x2="700.12" y2="792.64"/>
</svg>
