<svg id="Layer_1" data-name="Layer 1" xmlns="http://www.w3.org/2000/svg" viewBox="0 0 837.73 614.09"><defs><style>.cls-1{fill:#fff;}.cls-1,.cls-2,.cls-3,.cls-4,.cls-5{stroke:#000;stroke-miterlimit:10;}.cls-1,.cls-4,.cls-5{stroke-width:8px;}.cls-2{fill:#c4c4c4;}.cls-2,.cls-3{stroke-width:3px;}.cls-3,.cls-5{fill:#ff7f23;}.cls-4{fill:none;}</style></defs><path class="cls-1" d="M99.35,744.44c0-269.28,185.74-487.56,414.86-487.56S929.08,475.16,929.08,744.44" transform="translate(-95.35 -180.53)"/><rect class="cls-2" x="412.71" y="1.5" width="12.31" height="73.65"/><polygon class="cls-3" points="425.82 3.8 425.82 28.7 425.82 53.59 496.4 28.7 425.82 3.8"/><line class="cls-4" x1="204.22" y1="146.59" x2="635.82" y2="148.24"/><line class="cls-4" x1="84.28" y1="275.6" x2="754.14" y2="276.69"/><line class="cls-4" x1="20.25" y1="428.35" x2="293.88" y2="428.8"/><line class="cls-4" x1="4" y1="559.99" x2="296.41" y2="560.47"/><line class="cls-4" x1="546.53" y1="563.43" x2="837.72" y2="563.9"/><line class="cls-4" x1="546.8" y1="428.36" x2="817.6" y2="428.8"/><path class="cls-4" d="M514.21,328V256.88" transform="translate(-95.35 -180.53)"/><path class="cls-4" d="M405.17,452.18V328" transform="translate(-95.35 -180.53)"/><path class="cls-4" d="M514.75,521.67v-67.1" transform="translate(-95.35 -180.53)"/><path class="cls-1" d="M642.15,787.27V548.45c0-14.79-12.75-26.78-28.48-26.78H414.55c-15.73,0-28.48,12-28.48,26.78V787.27c0,.73,0,1.45.1,2.16,85.25,0,170.5,0,255.76,1.14A25.64,25.64,0,0,0,642.15,787.27Z" transform="translate(-95.35 -180.53)"/><path class="cls-5" d="M605.82,786.73V584.59c0-14.48-12.76-26.21-28.49-26.21H453.41c-15.74,0-28.49,11.73-28.49,26.21V786.73c0,.72,0,1.43.1,2.13,60.21,0,120.42.13,180.63.72A24.5,24.5,0,0,0,605.82,786.73Z" transform="translate(-95.35 -180.53)"/><rect class="cls-2" x="479.07" y="477.14" width="15.84" height="40.62"/><path class="cls-4" d="M618.56,454.57V330.34" transform="translate(-95.35 -180.53)"/><path class="cls-4" d="M287.4,609.11V461.17" transform="translate(-95.35 -180.53)"/><path class="cls-4" d="M740.13,609.11V461.17" transform="translate(-95.35 -180.53)"/><path class="cls-4" d="M804.55,740.09v-131" transform="translate(-95.35 -180.53)"/><path class="cls-4" d="M214.86,739.47v-131" transform="translate(-95.35 -180.53)"/></svg>