<?xml version="1.0" encoding="utf-8"?>
<!-- Generator: Adobe Illustrator 24.1.3, SVG Export Plug-In . SVG Version: 6.00 Build 0)  -->
<svg version="1.1" id="Layer_1" xmlns="http://www.w3.org/2000/svg" xmlns:xlink="http://www.w3.org/1999/xlink" x="0px" y="0px"
	 viewBox="0 0 1024 1024" style="enable-background:new 0 0 1024 1024;" xml:space="preserve">
<style type="text/css">
	.st0{fill:#FFFFFF;stroke:url(#SVGID_1_);stroke-miterlimit:10;}
	.st1{fill:#FFFFFF;stroke:#000000;stroke-width:20;stroke-miterlimit:10;}
	.st2{fill:#C4C4C4;stroke:#000000;stroke-width:6;stroke-miterlimit:10;}
	.st3{fill:#FF7F23;stroke:#000000;stroke-width:6;stroke-miterlimit:10;}
	.st4{fill:none;stroke:#000000;stroke-width:20;stroke-miterlimit:10;}
	.st5{fill:#FF7F23;stroke:#000000;stroke-width:20;stroke-miterlimit:10;}
	.st6{fill:#C4C4C4;stroke:#000000;stroke-width:5;stroke-miterlimit:10;}
</style>
<linearGradient id="SVGID_1_" gradientUnits="userSpaceOnUse" x1="-15.0735" y1="511.9412" x2="1038.1323" y2="511.9412">
	<stop  offset="0" style="stop-color:#2D82FF"/>
	<stop  offset="1" style="stop-color:#2D82FF"/>
</linearGradient>
<rect x="-14.57" y="-14.16" class="st0" width="1052.21" height="1052.21"/>
<path class="st1" d="M137.28,770.78c-6.57-160.62,12.12-313.9,102.94-407.73c72.9-75.31,181.42-124.08,274.09-124.08
	c98.36,0,212.67,52.14,285.65,135.97c81.43,93.54,98.5,242.73,90.98,395.83"/>
<rect x="497.94" y="119.16" class="st2" width="27.17" height="114.9"/>
<polygon class="st3" points="525.12,125.81 525.12,160.3 525.12,194.78 622.88,160.3 "/>
<line class="st4" x1="216.45" y1="391.08" x2="813.8" y2="392.21"/>
<line class="st4" x1="142.93" y1="596.62" x2="377.04" y2="597"/>
<line class="st4" x1="127.44" y1="762.13" x2="391.37" y2="760.44"/>
<line class="st4" x1="687.4" y1="760.92" x2="901.52" y2="761.27"/>
<line class="st4" x1="641.8" y1="597.43" x2="886.32" y2="597.83"/>
<path class="st4" d="M435.32,395.56c0-81.53,0-147.51,0-147.51"/>
<path class="st1" d="M691.32,756.86V463.48c0-18.17-17.51-32.9-39.11-32.9H378.82c-21.6,0-39.11,14.73-39.11,32.9v293.38
	c0,0.9,0.05,1.78,0.14,2.66c117.05,0,234.11,0,351.16,1.4C691.2,759.59,691.32,758.24,691.32,756.86z"/>
<path class="st5" d="M623.99,756.37v-236.3c0-16.92-15.3-30.63-34.17-30.63H441.2c-18.87,0-34.17,13.71-34.17,30.63v236.3
	c0,0.84,0.05,1.66,0.12,2.48c72.21,0.02,144.43,0.15,216.64,0.84C623.92,758.6,623.99,757.5,623.99,756.37z"/>
<rect x="582.49" y="618.65" class="st6" width="17.16" height="55.53"/>
<path class="st4" d="M271.76,597.63c0-113.86,0-205.99,0-205.99"/>
<path class="st4" d="M757.94,596.81c0-111.24,0-201.25,0-201.25"/>
<line class="st4" x1="328.53" y1="761" x2="700.1" y2="760.73"/>
</svg>
