<svg id="Layer_1" data-name="Layer 1" xmlns="http://www.w3.org/2000/svg" viewBox="0 0 791.46 696.01"><defs><style>.cls-1{fill:#fff;}.cls-1,.cls-2,.cls-3,.cls-4,.cls-5,.cls-6{stroke:#000;stroke-miterlimit:10;}.cls-1,.cls-4,.cls-5{stroke-width:35px;}.cls-2,.cls-6{fill:#c4c4c4;}.cls-2,.cls-3{stroke-width:10px;}.cls-3,.cls-5{fill:#ff7f23;}.cls-4{fill:none;}.cls-6{stroke-width:8px;}</style></defs><path class="cls-1" d="M137.87,771C131.3,610.39,150,457.11,240.81,363.28,313.72,288,422.24,239.21,514.9,239.21c98.37,0,212.68,52.14,285.65,136,81.43,93.54,98.5,242.74,91,395.83" transform="translate(-119.18 -114.4)"/><rect class="cls-2" x="379.35" y="5" width="27.17" height="114.9"/><polygon class="cls-3" points="406.53 11.65 406.53 46.13 406.53 80.62 504.29 46.13 406.53 11.65"/><line class="cls-4" x1="97.87" y1="276.92" x2="695.21" y2="278.05"/><line class="cls-4" x1="24.34" y1="482.46" x2="258.46" y2="482.84"/><line class="cls-4" x1="1.06" y1="648.02" x2="272.78" y2="646.28"/><line class="cls-4" x1="568.76" y1="647.82" x2="790.24" y2="648.18"/><line class="cls-4" x1="523.21" y1="483.27" x2="767.73" y2="483.67"/><path class="cls-4" d="M435.91,395.8V248.29" transform="translate(-119.18 -114.4)"/><path class="cls-1" d="M691.91,786.4V480.61c0-18.94-17.52-34.3-39.12-34.3H379.41c-21.6,0-39.11,15.36-39.11,34.3V786.4c0,.93.05,1.86.13,2.77,117.06,0,234.11,0,351.17,1.46A31.2,31.2,0,0,0,691.91,786.4Z" transform="translate(-119.18 -114.4)"/><path class="cls-5" d="M624.58,784.85V535.07c0-17.88-15.3-32.38-34.17-32.38H441.79c-18.87,0-34.17,14.5-34.17,32.38V784.85c0,.88.05,1.76.12,2.62,72.21,0,144.43.16,216.64.89A31.36,31.36,0,0,0,624.58,784.85Z" transform="translate(-119.18 -114.4)"/><rect class="cls-6" x="455.32" y="504.49" width="17.16" height="55.53"/><path class="cls-4" d="M272.35,597.87v-206" transform="translate(-119.18 -114.4)"/><path class="cls-4" d="M758.52,597V395.8" transform="translate(-119.18 -114.4)"/><line class="cls-4" x1="203.68" y1="678.51" x2="590.23" y2="678.51"/></svg>