<?xml version="1.0" encoding="utf-8"?>
<!-- Generator: Adobe Illustrator 24.1.3, SVG Export Plug-In . SVG Version: 6.00 Build 0)  -->
<svg version="1.1" id="Layer_1" xmlns="http://www.w3.org/2000/svg" xmlns:xlink="http://www.w3.org/1999/xlink" x="0px" y="0px"
	 viewBox="0 0 1024 1024" style="enable-background:new 0 0 1024 1024;" xml:space="preserve">
<style type="text/css">
	.st0{fill:#FFFFFF;stroke:url(#SVGID_1_);stroke-miterlimit:10;}
	.st1{fill:#FFFFFF;stroke:#000000;stroke-width:30;stroke-miterlimit:10;}
	.st2{fill:#C4C4C4;stroke:#000000;stroke-width:10;stroke-miterlimit:10;}
	.st3{fill:#FF7F23;stroke:#000000;stroke-width:10;stroke-miterlimit:10;}
	.st4{fill:none;stroke:#000000;stroke-width:30;stroke-miterlimit:10;}
	.st5{fill:#FF7F23;stroke:#000000;stroke-width:30;stroke-miterlimit:10;}
</style>
<linearGradient id="SVGID_1_" gradientUnits="userSpaceOnUse" x1="-14.4853" y1="512.1765" x2="1038.7206" y2="512.1765">
	<stop  offset="0" style="stop-color:#2D82FF"/>
	<stop  offset="1" style="stop-color:#2D82FF"/>
</linearGradient>
<rect x="-13.99" y="-13.93" class="st0" width="1052.21" height="1052.21"/>
<path class="st1" d="M137.87,769.84c-6.57-160.62,12.12-313.9,102.94-407.73c72.9-75.31,181.42-124.08,274.09-124.08
	c98.36,0,212.67,52.14,285.65,135.97c81.43,93.54,98.5,242.73,90.98,395.83"/>
<rect x="498.53" y="118.22" class="st2" width="27.17" height="114.9"/>
<polygon class="st3" points="525.7,124.87 525.7,159.35 525.7,193.83 623.47,159.35 "/>
<line class="st4" x1="217.04" y1="390.14" x2="814.39" y2="391.26"/>
<line class="st4" x1="143.52" y1="595.67" x2="377.63" y2="596.06"/>
<line class="st4" x1="122.72" y1="761.22" x2="391.96" y2="759.5"/>
<line class="st4" x1="687.94" y1="761.03" x2="906.73" y2="761.39"/>
<line class="st4" x1="642.39" y1="596.49" x2="886.91" y2="596.89"/>
<path class="st4" d="M435.91,394.62c0-81.53,0-147.51,0-147.51"/>
<path class="st1" d="M691.91,785.05V466.58c0-19.73-17.51-35.72-39.11-35.72H379.41c-21.6,0-39.11,15.99-39.11,35.72v318.47
	c0,0.97,0.05,1.93,0.14,2.89c117.05,0,234.11,0,351.16,1.52C691.79,788.01,691.91,786.54,691.91,785.05z"/>
<path class="st5" d="M624.58,783.51V522.35c0-18.7-15.3-33.85-34.17-33.85H441.79c-18.87,0-34.17,15.16-34.17,33.85v261.16
	c0,0.92,0.05,1.84,0.12,2.74c72.21,0.03,144.43,0.17,216.64,0.93C624.51,785.98,624.58,784.75,624.58,783.51z"/>
<rect x="583.08" y="617.71" class="st2" width="17.16" height="55.53"/>
<path class="st4" d="M272.35,596.69c0-113.86,0-205.99,0-205.99"/>
<path class="st4" d="M758.52,595.87c0-111.24,0-201.25,0-201.25"/>
<line class="st4" x1="325.62" y1="790.41" x2="706.71" y2="790.41"/>
</svg>
